# xmcd CD database file
#
# Track frame offsets:
#	150
#	17475
#	45900
#	79200
#	94575
#	111600
#	130302
#	137915
#	155799
#	185873
#
# Disc length: 2841 seconds
#
# Revision: 0
# Processed by: cddbd v1.5.2PL0 Copyright (c) Steve Scherf et al.
# Submitted via: CDex 1.51
#
DISCID=890b170a
DTITLE=Aki Rissanen - La Lumiére Noire
DYEAR=2007
DGENRE=Jazz
TTITLE0=High Expectations
TTITLE1=Ambiences I-III
TTITLE2=La Lumiére Noire
TTITLE3=1905
TTITLE4=Blind Desert
TTITLE5=Couscous Gratuit
TTITLE6=Low Expectations
TTITLE7=Dépéche-toi Lentement
TTITLE8=Gefunden
TTITLE9=De Profundis
EXTD=YEAR: 2007
EXTT0=
EXTT1=
EXTT2=
EXTT3=
EXTT4=
EXTT5=
EXTT6=
EXTT7=
EXTT8=
EXTT9=
PLAYORDER=
